<svg xmlns="http://www.w3.org/2000/svg" viewBox="0 0 1600 900" preserveAspectRatio="xMidYMid slice"><defs><linearGradient id="sea" x2="0" y2="1"><stop stop-color="#07131f"/><stop offset=".55" stop-color="#123d55"/><stop offset="1" stop-color="#030d17"/></linearGradient><radialGradient id="moon"><stop stop-color="#91d7ef" stop-opacity=".36"/><stop offset="1" stop-color="#91d7ef" stop-opacity="0"/></radialGradient></defs><rect width="1600" height="900" fill="url(#sea)"/><ellipse cx="1160" cy="210" rx="570" ry="400" fill="url(#moon)"/><g stroke="#8acde0" stroke-opacity=".09" stroke-width="60"><path d="m1010-70-330 970M1350-80 950 900M1560-60 1230 900"/></g><g fill="#071a29" opacity=".9"><path d="M0 900V580l100-80 80 60 120-180 120 155 120-110 130 175 140-90 160 130 120-210 130 90 100-140 100 160 80-80v440Z"/></g><g fill="#071c2a"><path d="M650 900V660h95V490h80v170h115V380h80v280h120V510h80v150h110V440h65v220h205v240Z"/></g><g fill="none" stroke="#427e8c" stroke-opacity=".36" stroke-width="8"><path d="M720 900V600m0 0h75m150 300V540m0 0h75m150 360V650m0 0h85M1340 900V600"/></g><g fill="#b8eff5" opacity=".65"><circle cx="1080" cy="230" r="2"/><circle cx="1330" cy="390" r="3"/><circle cx="900" cy="500" r="2"/><circle cx="1470" cy="170" r="2"/><circle cx="1250" cy="650" r="3"/></g><g fill="none" stroke="#4d9ca7" stroke-opacity=".28" stroke-width="3"><path d="M0 730q240-60 480 0t480 0 640 0M0 790q300-50 600 0t500 0 500 0M0 840q200-40 400 0t600 0 600 0"/></g></svg>